<svg id="Layer_1" data-name="Layer 1" xmlns="http://www.w3.org/2000/svg" viewBox="0 0 1468 200"><defs><style>.cls-1{fill:#fff;}</style></defs><title>VoxMedia_logo_RGB_white</title><path class="cls-1" d="M292.65,3a96.68,96.68,0,1,0,96.68,96.68A96.69,96.69,0,0,0,292.65,3m0,144.59c-25.2,0-45.64-21.45-45.64-47.91s20.44-47.91,45.64-47.91,45.63,21.45,45.63,47.91-20.44,47.91-45.63,47.91"/><polygon class="cls-1" points="0.23 6.81 98.09 195.46 195.97 6.81 138.91 6.81 98.67 85.53 58.43 6.81 0.23 6.81"/><rect class="cls-1" x="1203.24" y="6.82" width="51.88" height="186.02"/><polygon class="cls-1" points="981.23 53.4 981.23 6.81 838.61 6.81 838.61 192.83 981.23 192.83 981.23 146.25 892.86 146.25 892.86 122.23 974.71 122.23 974.71 77.42 892.86 77.42 892.86 53.4 981.23 53.4"/><path class="cls-1" d="M1085.49,6.81h-78.15v186h78.15c51.4,0,93.21-41.74,93.21-93s-41.81-93-93.21-93m-4.12,138.86h-21.55V54h21.55a45.85,45.85,0,1,1,0,91.69"/><polygon class="cls-1" points="755.95 89.12 755.95 192.83 808.4 192.83 808.4 6.82 743.42 6.82 703.18 84.38 662.95 6.82 597.96 6.82 597.96 192.83 649.26 192.83 649.26 89.12 702.6 191.95 755.95 89.12"/><polygon class="cls-1" points="479.41 143.85 512.13 192.84 573.57 192.84 510.12 99.83 572.99 6.82 512.7 6.82 479.98 55.8 480.55 55.8 447.83 6.82 386.97 6.82 449.84 99.83 386.39 192.84 446.68 192.84 479.41 143.85"/><path class="cls-1" d="M1345.85,128.21,1369,61.75l23.2,66.46ZM1400.1,6.81h-61l-67,186h52l8.12-23.94h73.72l8.12,23.94h53.11Z"/></svg>